<svg width="400" height="320" viewBox="0 0 400 320" fill="none" xmlns="http://www.w3.org/2000/svg">
<g clip-path="url(#clip0)">
<rect width="400" height="320" fill="black"/>
<path d="M272.471 263H132.725V243.518L206.553 161.486C217.49 149.084 225.01 139.025 229.111 131.311C233.311 123.498 235.41 115.441 235.41 107.141C235.41 96.0078 232.041 86.877 225.303 79.748C218.564 72.6191 209.58 69.0547 198.35 69.0547C184.873 69.0547 174.375 72.9121 166.855 80.627C159.434 88.2441 155.723 98.8887 155.723 112.561H128.623C128.623 92.9316 134.922 77.0625 147.52 64.9531C160.215 52.8437 177.158 46.7891 198.35 46.7891C218.174 46.7891 233.848 52.0137 245.371 62.4629C256.895 72.8145 262.656 86.6328 262.656 103.918C262.656 124.914 249.277 149.914 222.52 178.918L165.391 240.881H272.471V263Z" fill="#3E3E3E"/>
<path fill-rule="evenodd" clip-rule="evenodd" d="M400 0H0V320H400V0ZM107.964 194.294L125.483 151.746L177.7 146.328L158.464 240.206L142.76 249.686L134.762 288.91L118.543 296.999L137.868 291.43L151.302 256.616L159.798 252.419L213 320H248L208.049 248.552L233.722 173.972L238.89 187.404L263.436 229.006L260.165 291.997L274.896 228.049L269.13 211.839L287.242 242.957L294.888 244.967L288.761 241.656L273.645 207.863L260.599 187.855L259.817 185.657L273.064 133.399L282.371 138.937L320.733 127.498L335.513 137.988L321.491 123.57L284.455 128.136L274.514 121.025L255.907 87.2516L231.5 3.8147e-06H137L150.958 27.6297L139.657 50.5416L150.586 93.2272L148.744 52.3238L156.596 38.7891L177.539 80.2439L171.737 106.5L109.731 137.857L99.7137 187.019L81.5022 201.626L107.964 194.294Z" fill="white"/>
</g>
<defs>
<clipPath id="clip0">
<rect width="400" height="320" fill="white"/>
</clipPath>
</defs>
</svg>
