<svg width="400" height="320" viewBox="0 0 400 320" fill="none" xmlns="http://www.w3.org/2000/svg">
<g clip-path="url(#clip0)">
<rect width="400" height="320" fill="black"/>
<path d="M272.471 263H132.725V243.518L206.553 161.486C217.49 149.084 225.01 139.025 229.111 131.311C233.311 123.498 235.41 115.441 235.41 107.141C235.41 96.0078 232.041 86.877 225.303 79.748C218.564 72.6191 209.58 69.0547 198.35 69.0547C184.873 69.0547 174.375 72.9121 166.855 80.627C159.434 88.2441 155.723 98.8887 155.723 112.561H128.623C128.623 92.9316 134.922 77.0625 147.52 64.9531C160.215 52.8437 177.158 46.7891 198.35 46.7891C218.174 46.7891 233.848 52.0137 245.371 62.4629C256.895 72.8145 262.656 86.6328 262.656 103.918C262.656 124.914 249.277 149.914 222.52 178.918L165.391 240.881H272.471V263Z" fill="#3E3E3E"/>
<path fill-rule="evenodd" clip-rule="evenodd" d="M23.5056 113.851L107.385 110.42L53.033 156.685L40.5098 218.146L-1.52588e-05 230.081V90.3363L23.5056 113.851ZM-1.52588e-05 46.727V0H137L141.514 24.7275L35.9787 68.8937L-1.52588e-05 46.727ZM200.601 0H229.809L237.61 -15.4881L200.601 0ZM256.5 0L263.515 34.0992L285.866 51.6552L321.649 49.5569L359.5 13L323.525 53.5618L295.401 59.1447L331.5 87.5L400 103.729V139.118L348.17 154.573L354.941 177.776L359.921 240.271L369.6 247.383L355.957 242.23L343.047 183.652L323.3 156.786L275.012 128.053L278.839 183.074L329.937 218.383L331.415 251.826L324.648 222.427L264.295 194.196L250.548 177.284L245.289 191.229L266.76 208.291L276.242 272.104L306.499 305.406L308.994 320H299.621L296.293 310.707L257 297L236.995 288.109L248 320H159L141.553 286.352L95.4354 296.175L13.2036 269.288L-1.52588e-05 268.425V261.188L9.73974 259.919L85.9099 270.411L141.363 212.15L150.243 166.005L72.7248 174.048L50.8246 227.24L-1.52588e-05 232.846V230.081L-15.0001 234.5L-1.52588e-05 232.846V261.188L-37.0004 266.007L-1.52588e-05 268.425V320H299.621L317.559 370.089L308.994 320H400V139.118L443.294 126.209L487.281 157.429L445.549 114.52L400 103.729V0H256.5ZM-1.52588e-05 46.727V90.3363L-113.487 -23.1931L-1.52588e-05 46.727Z" fill="white"/>
</g>
<defs>
<clipPath id="clip0">
<rect width="400" height="320" fill="white"/>
</clipPath>
</defs>
</svg>
