<svg width="400" height="320" viewBox="0 0 400 320" fill="none" xmlns="http://www.w3.org/2000/svg">
<g clip-path="url(#clip0)">
<rect width="400" height="320" fill="black"/>
<path d="M272.471 263H132.725V243.518L206.553 161.486C217.49 149.084 225.01 139.025 229.111 131.311C233.311 123.498 235.41 115.441 235.41 107.141C235.41 96.0078 232.041 86.877 225.303 79.748C218.564 72.6191 209.58 69.0547 198.35 69.0547C184.873 69.0547 174.375 72.9121 166.855 80.627C159.434 88.2441 155.723 98.8887 155.723 112.561H128.623C128.623 92.9316 134.922 77.0625 147.52 64.9531C160.215 52.8437 177.158 46.7891 198.35 46.7891C218.174 46.7891 233.848 52.0137 245.371 62.4629C256.895 72.8145 262.656 86.6328 262.656 103.918C262.656 124.914 249.277 149.914 222.52 178.918L165.391 240.881H272.471V263Z" fill="#3E3E3E"/>
</g>
<defs>
<clipPath id="clip0">
<rect width="400" height="320" fill="white"/>
</clipPath>
</defs>
</svg>
